<?xml version="1.0" encoding="utf-8"?>
<!-- Generator: Adobe Illustrator 24.3.0, SVG Export Plug-In . SVG Version: 6.00 Build 0)  -->
<svg version="1.1" id="Layer_1" xmlns="http://www.w3.org/2000/svg" xmlns:xlink="http://www.w3.org/1999/xlink" x="0px" y="0px"
	 viewBox="0 0 595.28 561.26" style="enable-background:new 0 0 595.28 561.26;" xml:space="preserve">
<style type="text/css">
	.st0{fill:#FFFFFF;}
	.st1{fill:#29398F;}
	.st2{fill:#AC6AAC;}
	.st3{fill:url(#SVGID_1_);}
	.st4{fill:url(#SVGID_2_);}
	.st5{fill:url(#SVGID_3_);}
	.st6{fill:url(#SVGID_4_);}
	.st7{fill:url(#SVGID_5_);}
	.st8{fill:url(#SVGID_6_);}
	.st9{fill:url(#SVGID_7_);}
	.st10{fill:url(#SVGID_8_);}
	.st11{fill:url(#SVGID_9_);}
	.st12{fill:url(#SVGID_10_);}
	.st13{fill:url(#SVGID_11_);}
	.st14{fill:url(#SVGID_12_);}
	.st15{fill:url(#SVGID_13_);}
	.st16{fill:url(#SVGID_14_);}
	.st17{fill:url(#SVGID_15_);}
	.st18{fill:url(#SVGID_16_);}
</style>
<g>
	<g>
		<g>
			<path d="M555.31,1313.08c-0.43,20.33-17.04,36.59-37.38,36.61l-35.08,0.04l-0.26-243.69l-111.06,0.12l-10.08,0.16l-34.17,81.99
				l-33.89-80.74l-25.17,0.48l-0.02-15.9c-0.03-24.39,19.73-44.17,44.1-44.2l163.14-0.18c0,0,74.17,5.23,78.69,90.86
				C557.09,1195.33,556.23,1269.46,555.31,1313.08z"/>
		</g>
		<path d="M405.86,1188.22l0.17,162.12c0.03,29.93-24.21,54.23-54.16,54.26l-166.52,0.18c-49.45-1.69-71.6-67.02-71.6-67.02
			l-0.19-172.08c-0.03-31.75,25.68-57.51,57.43-57.54l17.56-0.02l-0.63,241.92l67.98-0.07l-1.03-161.59l59.27,119.15l31.79-0.03
			L405.86,1188.22z"/>
	</g>
	<g>
		<path d="M199.84,1484.58h-9.95v-23.87l-17.75,23.26l-17.75-23.26v23.87h-9.95v-39.2h10.45l17.25,22.65l17.33-22.65h10.37V1484.58z
			"/>
		<path d="M279.94,1472.49c0,3.29-1.08,6.11-3.23,8.44c-2.32,2.43-5.25,3.65-8.79,3.65H231.1v-9.15h36.82
			c1.38,0,2.07-0.98,2.07-2.94c0-1.96-0.69-2.94-2.07-2.94h-26.78c-3.54,0-6.47-1.22-8.79-3.66c-2.21-2.29-3.32-5.08-3.32-8.39
			c0-3.3,1.13-6.15,3.4-8.54c2.27-2.39,5.17-3.58,8.71-3.58h36.82v9.15h-36.9c-1.38,0-2.08,0.99-2.08,2.97c0,1.93,0.69,2.9,2.08,2.9
			h26.84c3.54,0,6.48,1.22,8.81,3.65C278.86,1466.39,279.94,1469.2,279.94,1472.49z"/>
		<path d="M364.52,1484.58h-9.95v-23.87l-17.75,23.26l-17.75-23.26v23.87h-9.95v-39.2h10.45l17.25,22.65l17.33-22.65h10.36V1484.58z
			"/>
		<path d="M446.04,1484.58h-9.95v-12.43h-26.2V1463h26.2v-5.49c0-1.98-0.72-2.97-2.16-2.97h-28.19c-1.38,0-2.07,0.99-2.07,2.97
			v27.08h-9.95v-27.1c0-3.3,1.12-6.14,3.36-8.52c2.24-2.38,5.13-3.58,8.67-3.58h28.19c3.59,0,6.51,1.19,8.75,3.58
			c2.24,2.39,3.36,5.23,3.36,8.52V1484.58z"/>
		<path d="M525.31,1484.58h-13.6l-21.31-21.96h25.62c1.82,0,2.74-1.35,2.74-4.04c0-2.69-0.91-4.04-2.74-4.04h-30.85v30.05h-9.95
			v-39.2h41.38c3.81,0,6.83,1.37,9.04,4.12c2.04,2.49,3.07,5.52,3.07,9.07c0,3.56-1.02,6.58-3.07,9.08
			c-2.21,2.75-5.22,4.12-9.04,4.12h-3.81L525.31,1484.58z"/>
	</g>
</g>
<g>
	<g>
		<g>
			<path class="st0" d="M527.5,327.53c-0.43,20.33-17.04,36.59-37.38,36.61l-35.08,0.04l-0.26-243.69l-111.06,0.12l-10.08,0.16
				l-34.17,81.99l-33.89-80.74l-25.17,0.48l-0.02-15.9c-0.03-24.39,19.73-44.17,44.1-44.2l163.14-0.18c0,0,74.17,5.23,78.69,90.86
				C529.28,209.79,528.42,283.91,527.5,327.53z"/>
		</g>
		<path class="st0" d="M378.05,202.67l0.17,162.12c0.03,29.93-24.21,54.23-54.16,54.26l-166.52,0.18
			c-49.45-1.69-71.6-67.02-71.6-67.02l-0.19-172.08c-0.03-31.75,25.68-57.51,57.43-57.54l17.56-0.02l-0.63,241.92l67.98-0.07
			l-1.03-161.59l59.27,119.15l31.79-0.03L378.05,202.67z"/>
	</g>
	<g>
		<path class="st0" d="M172.03,499.04h-9.95v-23.87l-17.75,23.26l-17.75-23.26v23.87h-9.95v-39.2h10.45l17.25,22.65l17.33-22.65
			h10.37V499.04z"/>
		<path class="st0" d="M252.13,486.95c0,3.29-1.08,6.11-3.23,8.44c-2.32,2.43-5.25,3.65-8.79,3.65h-36.82v-9.15h36.82
			c1.38,0,2.07-0.98,2.07-2.94c0-1.96-0.69-2.94-2.07-2.94h-26.78c-3.54,0-6.47-1.22-8.79-3.66c-2.21-2.29-3.32-5.08-3.32-8.39
			s1.13-6.15,3.4-8.54c2.27-2.39,5.17-3.58,8.71-3.58h36.82v9.15h-36.9c-1.38,0-2.08,0.99-2.08,2.97c0,1.93,0.69,2.9,2.08,2.9h26.84
			c3.54,0,6.48,1.22,8.81,3.65C251.05,480.84,252.13,483.66,252.13,486.95z"/>
		<path class="st0" d="M336.71,499.04h-9.95v-23.87l-17.75,23.26l-17.75-23.26v23.87h-9.95v-39.2h10.45l17.25,22.65l17.33-22.65
			h10.36V499.04z"/>
		<path class="st0" d="M418.23,499.04h-9.95v-12.43h-26.2v-9.15h26.2v-5.49c0-1.98-0.72-2.97-2.16-2.97h-28.19
			c-1.38,0-2.07,0.99-2.07,2.97v27.08h-9.95v-27.1c0-3.3,1.12-6.14,3.36-8.52c2.24-2.38,5.13-3.58,8.67-3.58h28.19
			c3.59,0,6.51,1.19,8.75,3.58c2.24,2.39,3.36,5.23,3.36,8.52V499.04z"/>
		<path class="st0" d="M497.5,499.04h-13.6l-21.31-21.96h25.62c1.82,0,2.74-1.35,2.74-4.04c0-2.69-0.91-4.04-2.74-4.04h-30.85v30.05
			h-9.95v-39.2h41.38c3.81,0,6.83,1.37,9.04,4.12c2.04,2.49,3.07,5.52,3.07,9.07c0,3.56-1.02,6.58-3.07,9.08
			c-2.21,2.75-5.22,4.12-9.04,4.12h-3.81L497.5,499.04z"/>
	</g>
</g>
<g>
	<g>
		<g>
			<path class="st1" d="M50.17,1313.08c-0.43,20.33-17.04,36.59-37.38,36.61l-35.08,0.04l-0.26-243.69l-111.06,0.12l-10.08,0.16
				l-34.17,81.99l-33.89-80.74l-25.17,0.48l-0.02-15.9c-0.03-24.39,19.73-44.17,44.1-44.2l163.14-0.18c0,0,74.17,5.23,78.69,90.86
				C51.96,1195.33,51.1,1269.46,50.17,1313.08z"/>
		</g>
		<path class="st1" d="M-99.28,1188.22l0.17,162.12c0.03,29.93-24.21,54.23-54.16,54.26l-166.52,0.18
			c-49.45-1.69-71.6-67.02-71.6-67.02l-0.19-172.08c-0.03-31.75,25.68-57.51,57.43-57.54l17.56-0.02l-0.63,241.92l67.98-0.07
			l-1.03-161.59l59.27,119.15l31.79-0.03L-99.28,1188.22z"/>
	</g>
	<g>
		<path class="st1" d="M-305.3,1484.58h-9.95v-23.87l-17.75,23.26l-17.75-23.26v23.87h-9.95v-39.2h10.45l17.25,22.65l17.33-22.65
			h10.37V1484.58z"/>
		<path class="st1" d="M-225.19,1472.49c0,3.29-1.08,6.11-3.23,8.44c-2.32,2.43-5.25,3.65-8.79,3.65h-36.82v-9.15h36.82
			c1.38,0,2.07-0.98,2.07-2.94c0-1.96-0.69-2.94-2.07-2.94H-264c-3.54,0-6.47-1.22-8.79-3.66c-2.21-2.29-3.32-5.08-3.32-8.39
			c0-3.3,1.13-6.15,3.4-8.54c2.27-2.39,5.17-3.58,8.71-3.58h36.82v9.15h-36.9c-1.38,0-2.08,0.99-2.08,2.97c0,1.93,0.69,2.9,2.08,2.9
			h26.84c3.54,0,6.48,1.22,8.81,3.65C-226.27,1466.39-225.19,1469.2-225.19,1472.49z"/>
		<path class="st1" d="M-140.61,1484.58h-9.95v-23.87l-17.75,23.26l-17.75-23.26v23.87H-196v-39.2h10.45l17.25,22.65l17.33-22.65
			h10.36V1484.58z"/>
		<path class="st1" d="M-59.1,1484.58h-9.95v-12.43h-26.2V1463h26.2v-5.49c0-1.98-0.72-2.97-2.16-2.97H-99.4
			c-1.38,0-2.07,0.99-2.07,2.97v27.08h-9.95v-27.1c0-3.3,1.12-6.14,3.36-8.52c2.24-2.38,5.13-3.58,8.67-3.58h28.19
			c3.59,0,6.51,1.19,8.75,3.58c2.24,2.39,3.36,5.23,3.36,8.52V1484.58z"/>
		<path class="st1" d="M20.18,1484.58H6.58l-21.31-21.96h25.62c1.82,0,2.74-1.35,2.74-4.04c0-2.69-0.91-4.04-2.74-4.04h-30.85v30.05
			h-9.95v-39.2h41.38c3.81,0,6.83,1.37,9.04,4.12c2.04,2.49,3.07,5.52,3.07,9.07c0,3.56-1.02,6.58-3.07,9.08
			c-2.21,2.75-5.22,4.12-9.04,4.12H7.66L20.18,1484.58z"/>
	</g>
</g>
<g>
	<g>
		<g>
			<path class="st2" d="M1632.74,724.53c-0.43,20.33-17.04,36.59-37.38,36.61l-35.08,0.04l-0.26-243.69l-111.06,0.12l-10.08,0.16
				l-34.17,81.99l-33.89-80.74l-25.17,0.48l-0.02-15.9c-0.03-24.39,19.73-44.17,44.1-44.2l163.14-0.18c0,0,74.17,5.23,78.69,90.86
				C1634.53,606.78,1633.66,680.91,1632.74,724.53z"/>
		</g>
		<path class="st2" d="M1483.29,599.67l0.17,162.12c0.03,29.93-24.21,54.23-54.16,54.26l-166.52,0.18
			c-49.45-1.69-71.6-67.02-71.6-67.02L1191,577.13c-0.03-31.75,25.68-57.51,57.43-57.54l17.56-0.02l-0.63,241.92l67.98-0.07
			l-1.03-161.59l59.27,119.15l31.79-0.03L1483.29,599.67z"/>
	</g>
	<g>
		<path class="st2" d="M1277.27,896.03h-9.95v-23.87l-17.75,23.26l-17.75-23.26v23.87h-9.95v-39.2h10.45l17.25,22.65l17.33-22.65
			h10.37V896.03z"/>
		<path class="st2" d="M1357.37,883.95c0,3.29-1.08,6.11-3.23,8.44c-2.32,2.43-5.25,3.65-8.79,3.65h-36.82v-9.15h36.82
			c1.38,0,2.07-0.98,2.07-2.94c0-1.96-0.69-2.94-2.07-2.94h-26.78c-3.54,0-6.47-1.22-8.79-3.66c-2.21-2.29-3.32-5.08-3.32-8.39
			s1.13-6.15,3.4-8.54c2.27-2.39,5.17-3.58,8.71-3.58h36.82v9.15h-36.9c-1.38,0-2.08,0.99-2.08,2.97c0,1.93,0.69,2.9,2.08,2.9h26.84
			c3.54,0,6.48,1.22,8.81,3.65C1356.29,877.84,1357.37,880.65,1357.37,883.95z"/>
		<path class="st2" d="M1441.95,896.03H1432v-23.87l-17.75,23.26l-17.75-23.26v23.87h-9.95v-39.2h10.45l17.25,22.65l17.33-22.65
			h10.36V896.03z"/>
		<path class="st2" d="M1523.47,896.03h-9.95V883.6h-26.2v-9.15h26.2v-5.49c0-1.98-0.72-2.97-2.16-2.97h-28.19
			c-1.38,0-2.07,0.99-2.07,2.97v27.08h-9.95v-27.1c0-3.3,1.12-6.14,3.36-8.52c2.24-2.38,5.13-3.58,8.67-3.58h28.19
			c3.59,0,6.51,1.19,8.75,3.58c2.24,2.39,3.36,5.23,3.36,8.52V896.03z"/>
		<path class="st2" d="M1602.74,896.03h-13.6l-21.31-21.96h25.62c1.82,0,2.74-1.35,2.74-4.04c0-2.69-0.91-4.04-2.74-4.04h-30.85
			v30.05h-9.95v-39.2h41.38c3.81,0,6.83,1.37,9.04,4.12c2.04,2.49,3.07,5.52,3.07,9.07c0,3.56-1.02,6.58-3.07,9.08
			c-2.21,2.75-5.22,4.12-9.04,4.12h-3.81L1602.74,896.03z"/>
	</g>
</g>
<linearGradient id="SVGID_1_" gradientUnits="userSpaceOnUse" x1="-273.5475" y1="229.7008" x2="-21.2019" y2="148.7597">
	<stop  offset="0" style="stop-color:#2A3692"/>
	<stop  offset="1" style="stop-color:#AC6AAC"/>
</linearGradient>
<path class="st3" d="M-32.5,314.32c-0.93,20.32-17.95,36.16-38.28,35.67l-35.07-0.83l5.77-243.62l-111.03-2.63l-10.08-0.09
	l-68.07-0.44l-25.17-0.14l0.38-15.89c0.57-24.39,20.81-43.67,45.18-43.1l163.09,3.87c0,0,74.02,7.07,76.41,92.78
	C-27.8,196.66-30.5,270.74-32.5,314.32z"/>
<linearGradient id="SVGID_2_" gradientUnits="userSpaceOnUse" x1="-275.9129" y1="143.9955" x2="-214.3208" y2="124.2395">
	<stop  offset="0" style="stop-color:#2A3692"/>
	<stop  offset="1" style="stop-color:#AC6AAC"/>
</linearGradient>
<polygon class="st4" points="-221.19,102.82 -257.38,183.94 -289.26,102.38 "/>
<linearGradient id="SVGID_3_" gradientUnits="userSpaceOnUse" x1="-348.4819" y1="294.6536" x2="-162.9809" y2="235.1533">
	<stop  offset="0" style="stop-color:#2A3692"/>
	<stop  offset="1" style="stop-color:#AC6AAC"/>
</linearGradient>
<polygon class="st5" points="-178.81,185.8 -182.65,347.88 -332.72,343.79 -329.75,182.22 -273.45,302.81 -241.67,303.56 "/>
<linearGradient id="SVGID_4_" gradientUnits="userSpaceOnUse" x1="-483.1997" y1="301.0457" x2="-224.3091" y2="218.0053">
	<stop  offset="0" style="stop-color:#2A3692"/>
	<stop  offset="1" style="stop-color:#AC6AAC"/>
</linearGradient>
<path class="st6" d="M-182.65,347.88c-0.71,29.92-25.55,53.61-55.49,52.9l-166.47-3.95c-49.4-2.92-69.92-68.76-69.92-68.76
	l4.07-172.04c0.75-31.74,27.1-56.85,58.84-56.1l17.56,0.42l-6.62,241.83l67.96,1.61L-182.65,347.88z"/>
<g>
	<linearGradient id="SVGID_5_" gradientUnits="userSpaceOnUse" x1="-590.6863" y1="516.4113" x2="-49.836" y2="342.9309">
		<stop  offset="0" style="stop-color:#2A3692"/>
		<stop  offset="1" style="stop-color:#AC6AAC"/>
	</linearGradient>
	<path class="st7" d="M-384.69,478.82h-9.95v-23.87l-17.75,23.26l-17.75-23.26v23.87h-9.95v-39.2h10.45l17.25,22.65l17.33-22.65
		h10.37V478.82z"/>
	<linearGradient id="SVGID_6_" gradientUnits="userSpaceOnUse" x1="-583.002" y1="540.3683" x2="-42.1516" y2="366.888">
		<stop  offset="0" style="stop-color:#2A3692"/>
		<stop  offset="1" style="stop-color:#AC6AAC"/>
	</linearGradient>
	<path class="st8" d="M-304.59,466.73c0,3.29-1.08,6.11-3.23,8.44c-2.32,2.43-5.25,3.65-8.79,3.65h-36.82v-9.15h36.82
		c1.38,0,2.07-0.98,2.07-2.94c0-1.96-0.69-2.94-2.07-2.94h-26.78c-3.54,0-6.47-1.22-8.79-3.66c-2.21-2.29-3.32-5.08-3.32-8.39
		s1.13-6.15,3.4-8.54c2.27-2.39,5.17-3.58,8.71-3.58h36.82v9.15h-36.9c-1.38,0-2.08,0.99-2.08,2.97c0,1.93,0.69,2.9,2.08,2.9h26.84
		c3.54,0,6.48,1.22,8.81,3.65C-305.67,460.63-304.59,463.44-304.59,466.73z"/>
	<linearGradient id="SVGID_7_" gradientUnits="userSpaceOnUse" x1="-575.3235" y1="564.3069" x2="-34.4732" y2="390.8267">
		<stop  offset="0" style="stop-color:#2A3692"/>
		<stop  offset="1" style="stop-color:#AC6AAC"/>
	</linearGradient>
	<path class="st9" d="M-220.01,478.82h-9.95v-23.87l-17.75,23.26l-17.75-23.26v23.87h-9.95v-39.2h10.45l17.25,22.65l17.33-22.65
		h10.36V478.82z"/>
	<linearGradient id="SVGID_8_" gradientUnits="userSpaceOnUse" x1="-567.1158" y1="589.8959" x2="-26.2654" y2="416.4155">
		<stop  offset="0" style="stop-color:#2A3692"/>
		<stop  offset="1" style="stop-color:#AC6AAC"/>
	</linearGradient>
	<path class="st10" d="M-138.49,478.82h-9.95v-12.43h-26.2v-9.15h26.2v-5.49c0-1.98-0.72-2.97-2.16-2.97h-28.19
		c-1.38,0-2.07,0.99-2.07,2.97v27.08h-9.95v-27.1c0-3.3,1.12-6.14,3.36-8.52c2.24-2.38,5.13-3.58,8.67-3.58h28.19
		c3.59,0,6.51,1.19,8.75,3.58c2.24,2.39,3.36,5.23,3.36,8.52V478.82z"/>
	<linearGradient id="SVGID_9_" gradientUnits="userSpaceOnUse" x1="-560.0767" y1="611.8414" x2="-19.2263" y2="438.3611">
		<stop  offset="0" style="stop-color:#2A3692"/>
		<stop  offset="1" style="stop-color:#AC6AAC"/>
	</linearGradient>
	<path class="st11" d="M-59.22,478.82h-13.6l-21.31-21.96h25.62c1.82,0,2.74-1.35,2.74-4.04c0-2.69-0.91-4.04-2.74-4.04h-30.85
		v30.05h-9.95v-39.2h41.38c3.81,0,6.83,1.37,9.04,4.12c2.04,2.49,3.07,5.52,3.07,9.07c0,3.56-1.02,6.58-3.07,9.08
		c-2.21,2.75-5.22,4.12-9.04,4.12h-3.81L-59.22,478.82z"/>
</g>
<g>
	<g>
		<g>
			
				<linearGradient id="SVGID_10_" gradientUnits="userSpaceOnUse" x1="577.4307" y1="544.1848" x2="1119.4512" y2="370.3292" gradientTransform="matrix(0.9997 -0.0248 0.0248 0.9997 -5.8929 7.4694)">
				<stop  offset="0" style="stop-color:#2A3692"/>
				<stop  offset="1" style="stop-color:#AC6AAC"/>
			</linearGradient>
			<path class="st12" d="M1197.17,487.31c-0.43,20.33-17.08,36.59-37.46,36.61l-35.16,0.04l-0.26-243.69l-111.31,0.12l-10.1,0.16
				l-34.25,81.99l-33.96-80.74l-25.22,0.48l-0.02-15.9c-0.03-24.39,19.77-44.17,44.2-44.2l163.49-0.18c0,0,74.33,5.23,78.86,90.86
				C1198.95,369.57,1198.09,443.69,1197.17,487.31z"/>
		</g>
		
			<linearGradient id="SVGID_11_" gradientUnits="userSpaceOnUse" x1="578.7953" y1="547.7301" x2="1120.6418" y2="373.9303" gradientTransform="matrix(0.9997 -0.0248 0.0248 0.9997 -5.8929 7.4694)">
			<stop  offset="0" style="stop-color:#2A3692"/>
			<stop  offset="1" style="stop-color:#AC6AAC"/>
		</linearGradient>
		<path class="st13" d="M1047.39,362.45l0.17,162.12c0.03,29.93-24.26,54.23-54.27,54.26l-166.88,0.18
			c-49.56-1.69-71.76-67.02-71.76-67.02l-0.19-172.08c-0.03-31.75,25.74-57.51,57.55-57.54l17.6-0.02l-0.63,241.92l68.13-0.07
			l-1.04-161.59l59.4,119.15l31.86-0.03L1047.39,362.45z"/>
	</g>
	<g>
		<linearGradient id="SVGID_12_" gradientUnits="userSpaceOnUse" x1="635.6331" y1="694.9322" x2="1177.4402" y2="521.145">
			<stop  offset="0" style="stop-color:#2A3692"/>
			<stop  offset="1" style="stop-color:#AC6AAC"/>
		</linearGradient>
		<path class="st14" d="M842,657.24h-9.97v-23.87l-17.78,23.26l-17.78-23.26v23.87h-9.97v-39.2h10.47l17.29,22.65l17.37-22.65H842
			V657.24z"/>
		<linearGradient id="SVGID_13_" gradientUnits="userSpaceOnUse" x1="643.3788" y1="718.9269" x2="1185.1545" y2="545.1498">
			<stop  offset="0" style="stop-color:#2A3692"/>
			<stop  offset="1" style="stop-color:#AC6AAC"/>
		</linearGradient>
		<path class="st15" d="M922.28,645.15c0,3.29-1.08,6.11-3.24,8.44c-2.33,2.43-5.26,3.65-8.81,3.65h-36.9v-9.15h36.9
			c1.38,0,2.08-0.98,2.08-2.94c0-1.96-0.69-2.94-2.08-2.94h-26.84c-3.55,0-6.48-1.22-8.81-3.66c-2.22-2.29-3.32-5.08-3.32-8.39
			s1.13-6.15,3.41-8.54c2.27-2.39,5.18-3.58,8.73-3.58h36.9v9.15h-36.98c-1.39,0-2.08,0.99-2.08,2.97c0,1.93,0.69,2.9,2.08,2.9h26.9
			c3.55,0,6.49,1.22,8.83,3.65C921.2,639.04,922.28,641.86,922.28,645.15z"/>
		<linearGradient id="SVGID_14_" gradientUnits="userSpaceOnUse" x1="651.0892" y1="742.9126" x2="1192.8962" y2="569.1254">
			<stop  offset="0" style="stop-color:#2A3692"/>
			<stop  offset="1" style="stop-color:#AC6AAC"/>
		</linearGradient>
		<path class="st16" d="M1007.05,657.24h-9.97v-23.87l-17.78,23.26l-17.78-23.26v23.87h-9.97v-39.2H962l17.29,22.65l17.37-22.65
			h10.39V657.24z"/>
		<linearGradient id="SVGID_15_" gradientUnits="userSpaceOnUse" x1="659.326" y1="768.5528" x2="1201.1611" y2="594.7567">
			<stop  offset="0" style="stop-color:#2A3692"/>
			<stop  offset="1" style="stop-color:#AC6AAC"/>
		</linearGradient>
		<path class="st17" d="M1088.74,657.24h-9.97v-12.43h-26.26v-9.15h26.26v-5.49c0-1.98-0.72-2.97-2.16-2.97h-28.26
			c-1.39,0-2.08,0.99-2.08,2.97v27.08h-9.97v-27.1c0-3.3,1.12-6.14,3.37-8.52c2.24-2.38,5.14-3.58,8.68-3.58h28.26
			c3.6,0,6.52,1.19,8.77,3.58c2.24,2.39,3.37,5.23,3.37,8.52V657.24z"/>
		<linearGradient id="SVGID_16_" gradientUnits="userSpaceOnUse" x1="666.4028" y1="790.5394" x2="1208.2423" y2="616.7419">
			<stop  offset="0" style="stop-color:#2A3692"/>
			<stop  offset="1" style="stop-color:#AC6AAC"/>
		</linearGradient>
		<path class="st18" d="M1168.18,657.24h-13.63l-21.36-21.96h25.68c1.83,0,2.74-1.35,2.74-4.04c0-2.69-0.91-4.04-2.74-4.04h-30.91
			v30.05h-9.97v-39.2h41.47c3.82,0,6.84,1.37,9.06,4.12c2.05,2.49,3.07,5.52,3.07,9.07c0,3.56-1.03,6.58-3.07,9.08
			c-2.22,2.75-5.24,4.12-9.06,4.12h-3.82L1168.18,657.24z"/>
	</g>
</g>
</svg>
